<?xml version="1.0" encoding="utf-8"?>
<!-- Generator: Adobe Illustrator 16.0.0, SVG Export Plug-In . SVG Version: 6.00 Build 0)  -->
<!DOCTYPE svg PUBLIC "-//W3C//DTD SVG 1.0//EN" "http://www.w3.org/TR/2001/REC-SVG-20010904/DTD/svg10.dtd">
<svg version="1.0" id="Layer_1" xmlns="http://www.w3.org/2000/svg" xmlns:xlink="http://www.w3.org/1999/xlink" x="0px" y="0px"
	 width="1920px" height="1080px" viewBox="0 0 1920 1080" enable-background="new 0 0 1920 1080" xml:space="preserve">
<image display="none" overflow="visible" width="1300" height="1390" xlink:href="8685E00B.jpg"  transform="matrix(1.4688 0 0 1.4688 563.7344 282.7749)">
</image>
<g>
	<path fill="#FFFFFF" d="M920.986,538.8l-17.55,1.08C908.486,539.76,915.217,539.474,920.986,538.8z"/>
	<path fill="#FFFFFF" d="M901.575,539.994l1.861-0.114c-1.002,0.023-1.938,0.041-2.786,0.054
		C900.95,539.985,901.258,540.014,901.575,539.994z"/>
	<path fill="#FFFFFF" d="M921.782,538.751c0.305-0.019,0.596-0.078,0.877-0.161c-0.547,0.074-1.105,0.144-1.673,0.21
		L921.782,538.751z"/>
	<path fill="#FFFFFF" d="M920.039,510.394l-3.802,0.233l3.872-0.23C920.086,510.397,920.063,510.393,920.039,510.394z"/>
	<path fill="#FFFFFF" d="M958.475,495.937V469.22v-0.462v-60.297c0-5.522-4.478-10-10-10h-60.759c-5.522,0-10,4.478-10,10v60.759
		c0,5.522,4.478,10,10,10h42.847l0.048,17.304c0.029,1.065-0.016,2.21-0.016,3.344c0,5.443-4.029,9.9-9.324,10.46l-1.161,0.069
		l-3.872,0.23l-16.406,1.01c-2.205,0.137-3.882,2.052-3.744,4.281l1.248,20.287c0.116,1.908,1.528,3.416,3.315,3.729
		c0.848-0.013,1.784-0.03,2.786-0.054l17.55-1.08c0.567-0.066,1.126-0.136,1.673-0.21c1.966-0.267,3.78-0.583,5.321-0.962
		c10.166-2.5,26.655-11.333,30.494-32.333C958.532,501.82,958.475,495.937,958.475,495.937z"/>
</g>
<g>
	<path fill="#FFFFFF" d="M1004.771,538.733l-17.55,1.08C992.271,539.693,999.001,539.407,1004.771,538.733z"/>
	<path fill="#FFFFFF" d="M985.359,539.928l1.861-0.114c-1.002,0.023-1.938,0.041-2.786,0.054
		C984.734,539.919,985.042,539.947,985.359,539.928z"/>
	<path fill="#FFFFFF" d="M1005.566,538.685c0.305-0.019,0.596-0.078,0.877-0.161c-0.547,0.074-1.105,0.144-1.673,0.21
		L1005.566,538.685z"/>
	<path fill="#FFFFFF" d="M1003.823,510.327l-3.802,0.233l3.872-0.23C1003.87,510.331,1003.848,510.326,1003.823,510.327z"/>
	<path fill="#FFFFFF" d="M1042.259,495.87v-26.717v-0.462v-60.297c0-5.522-4.478-10-10-10H971.5c-5.522,0-10,4.478-10,10v60.759
		c0,5.522,4.478,10,10,10h42.847l0.048,17.304c0.029,1.065-0.016,2.21-0.016,3.344c0,5.443-4.029,9.9-9.324,10.46l-1.161,0.069
		l-3.872,0.23l-16.406,1.01c-2.205,0.137-3.882,2.052-3.744,4.281l1.248,20.287c0.116,1.908,1.528,3.416,3.315,3.729
		c0.848-0.013,1.784-0.03,2.786-0.054l17.55-1.08c0.567-0.066,1.126-0.136,1.673-0.21c1.966-0.267,3.78-0.583,5.321-0.962
		c10.166-2.5,26.655-11.333,30.494-32.333C1042.316,501.754,1042.259,495.87,1042.259,495.87z"/>
</g>
</svg>
