<?xml version="1.0" encoding="utf-8"?>
<!-- Generator: Adobe Illustrator 16.0.0, SVG Export Plug-In . SVG Version: 6.00 Build 0)  -->
<svg version="1.2" baseProfile="tiny" xmlns="http://www.w3.org/2000/svg" xmlns:xlink="http://www.w3.org/1999/xlink" x="0px"
	 y="0px" width="1920px" height="1080px" viewBox="0 0 1920 1080" xml:space="preserve">
<g id="Layer_2">
	<rect x="701" y="534" fill="#A0A0A0" width="169" height="5"/>
</g>
<g id="Layer_1">
	<path fill="#727272" d="M374,944.698C374,958.672,362.672,970,348.699,970h-0.397C334.328,970,323,958.672,323,944.698V632.302
		C323,618.328,334.328,607,348.301,607h0.397C362.672,607,374,618.328,374,632.302V944.698z"/>
	<path fill="#9E9E9E" d="M374,932.254c0,13.974-11.813,28.752-25.915,28.752l0,0c-13.272,0-25.085-14.778-25.085-28.752V620.346
		c0-13.974,11.526-25.301,25.5-25.301l0,0c13.973,0,25.5,11.327,25.5,25.301V932.254z"/>
	<path fill="#9A7121" d="M1545.93,516.238H330.647c-22.449,0-40.647,18.198-40.647,40.647v36.501
		c0,19.637,13.925,36.021,32.44,39.817h822.82v-2.488v-40.647h40.647h360.022h40.647v-33.183
		C1586.577,534.436,1568.379,516.238,1545.93,516.238z"/>
	<path fill="#E6BF74" d="M1586.577,542.783c0-22.45-18.198-40.647-40.647-40.647H330.647c-22.449,0-40.647,18.198-40.647,40.647
		v36.5c0,22.448,18.199,40.647,40.647,40.647H1545.93c22.449,0,40.647-18.199,40.647-40.647V542.783z"/>
	<path fill="#E6BF74" d="M1545.93,590h-360.022H1145v40.715V767.59v160.102c0,22.449,18.458,40.309,40.907,40.309h360.022
		c22.449,0,41.07-17.859,41.07-40.309V767.59V630.715v-56.172L1545.93,590z"/>
	<g>
		<path fill="#9A7121" d="M1545.93,619.931c22.449,0,40.647-18.199,40.647-40.647v13.272c0,22.449-18.198,40.647-40.647,40.647
			H731.317v-3.318v-9.954H1545.93z"/>
		<path fill="#9A7121" d="M290,589.237v-9.954c0,3.435,0.43,6.769,1.233,9.954H290z"/>
	</g>
	<path fill="#9A7121" d="M1545.93,958.385h-180.011h-180.012c-22.449,0-40.647-18.199-40.647-40.647v13.272
		c0,22.449,18.198,40.647,40.647,40.647h180.012h180.011c22.449,0,40.647-18.198,40.647-40.647v-13.272
		C1586.577,940.186,1568.379,958.385,1545.93,958.385z"/>
	<path fill="#9A7121" d="M1545.93,873.771h-180.011h-180.012c-22.449,0-40.647-18.199-40.647-40.648v13.273
		c0,22.448,18.198,40.647,40.647,40.647h180.012h180.011c22.449,0,40.647-18.199,40.647-40.647v-13.273
		C1586.577,855.572,1568.379,873.771,1545.93,873.771z"/>
	<path fill="#9A7121" d="M1545.93,789.158h-180.011h-180.012c-22.449,0-40.647-18.199-40.647-40.648v13.273
		c0,22.448,18.198,40.647,40.647,40.647h180.012h180.011c22.449,0,40.647-18.199,40.647-40.647V748.51
		C1586.577,770.959,1568.379,789.158,1545.93,789.158z"/>
	<path fill="#9A7121" d="M1545.93,704.544h-180.011h-180.012c-22.449,0-40.647-18.198-40.647-40.647v13.272
		c0,22.449,18.198,40.648,40.647,40.648h180.012h180.011c22.449,0,40.647-18.199,40.647-40.648v-13.272
		C1586.577,686.346,1568.379,704.544,1545.93,704.544z"/>
	<path fill="#9A7121" d="M1445,671.666c0,4.051-3.283,7.334-7.334,7.334h-142.332c-4.051,0-7.334-3.283-7.334-7.334v-0.332
		c0-4.051,3.283-7.334,7.334-7.334h142.332c4.051,0,7.334,3.283,7.334,7.334V671.666z"/>
	<path fill="#9A7121" d="M1445,756.667c0,4.05-3.283,7.333-7.334,7.333h-142.332c-4.051,0-7.334-3.283-7.334-7.333v-0.334
		c0-4.05,3.283-7.333,7.334-7.333h142.332c4.051,0,7.334,3.283,7.334,7.333V756.667z"/>
	<path fill="#9A7121" d="M1445,840.666c0,4.051-3.283,7.334-7.334,7.334h-142.332c-4.051,0-7.334-3.283-7.334-7.334v-0.332
		c0-4.051,3.283-7.334,7.334-7.334h142.332c4.051,0,7.334,3.283,7.334,7.334V840.666z"/>
	<path fill="#9A7121" d="M1445,925.666c0,4.051-3.283,7.334-7.334,7.334h-142.332c-4.051,0-7.334-3.283-7.334-7.334v-0.332
		c0-4.051,3.283-7.334,7.334-7.334h142.332c4.051,0,7.334,3.283,7.334,7.334V925.666z"/>
	<path fill="#A0A0A0" d="M869.852,539c0,8.842-8.543,16-19.08,16H719.704c-10.537,0-19.079-7.158-19.079-16l0,0
		c0-8.841,8.542-16,19.079-16h131.068C861.309,523,869.852,530.159,869.852,539L869.852,539z"/>
	<path fill="#CCCCCC" d="M869.852,534c0,8.842-8.543,16-19.08,16H719.704c-10.537,0-19.079-7.158-19.079-16l0,0
		c0-8.842,8.542-16,19.079-16h131.068C861.309,518,869.852,525.158,869.852,534L869.852,534z"/>
	<rect x="732" y="480" fill="#BCBCBC" width="105" height="52"/>
	<path fill="#B7B7B7" d="M975,261.235c0-6.076-4.625-11.235-10.58-11.235H605.227c-5.956,0-11.227,5.16-11.227,11.235v217.458
		c0,6.074,5.271,11.307,11.227,11.307H964.42c5.955,0,10.58-5.233,10.58-11.307V261.235z"/>
	<path fill="#CCCCCC" d="M975,265.784c0-5.956-4.828-10.784-10.783-10.784H604.784c-5.956,0-10.784,4.828-10.784,10.784v213.433
		c0,5.956,4.828,10.784,10.784,10.784h359.433c5.955,0,10.783-4.828,10.783-10.784V265.784z"/>
	<rect x="606" y="268" fill="#222831" width="357" height="191"/>
	<circle fill="#222831" cx="943.885" cy="475.547" r="5.603"/>
	<circle fill="#222831" cx="929.883" cy="475.647" r="3.215"/>
	<path fill="#B7B7B7" d="M890,603.279c0,5.368-4.352,9.721-9.721,9.721H690.721c-5.369,0-9.721-4.353-9.721-9.721v-29.559
		c0-5.369,4.352-9.721,9.721-9.721h189.559c5.369,0,9.721,4.352,9.721,9.721V603.279z"/>
	<path fill="#E0E0E0" d="M890,598.278c0,5.369-4.352,9.722-9.721,9.722H690.721c-5.369,0-9.721-4.353-9.721-9.722v-29.557
		c0-5.369,4.352-9.722,9.721-9.722h189.559c5.369,0,9.721,4.353,9.721,9.722V598.278z"/>
	<rect x="687" y="564" fill="#FFFFFF" width="9" height="9"/>
	<rect x="687" y="575" fill="#FFFFFF" width="9" height="9"/>
	<rect x="687" y="586" fill="#FFFFFF" width="9" height="8"/>
	<rect x="687" y="596" fill="#FFFFFF" width="9" height="9"/>
	<rect x="698" y="596" fill="#FFFFFF" width="9" height="9"/>
	<rect x="708" y="596" fill="#FFFFFF" width="52" height="9"/>
	<rect x="698" y="586" fill="#FFFFFF" width="9" height="8"/>
	<rect x="708" y="586" fill="#FFFFFF" width="9" height="8"/>
	<rect x="719" y="586" fill="#FFFFFF" width="9" height="8"/>
	<rect x="730" y="586" fill="#FFFFFF" width="8" height="8"/>
	<rect x="740" y="586" fill="#FFFFFF" width="9" height="8"/>
	<rect x="750" y="586" fill="#FFFFFF" width="10" height="8"/>
	<rect x="760" y="586" fill="#FFFFFF" width="9" height="8"/>
	<rect x="771" y="586" fill="#FFFFFF" width="9" height="8"/>
	<rect x="782" y="586" fill="#FFFFFF" width="9" height="8"/>
	<rect x="782" y="596" fill="#FFFFFF" width="9" height="9"/>
	<rect x="760" y="596" fill="#FFFFFF" width="9" height="9"/>
	<rect x="771" y="596" fill="#FFFFFF" width="9" height="9"/>
	<rect x="698" y="575" fill="#FFFFFF" width="9" height="9"/>
	<rect x="708" y="575" fill="#FFFFFF" width="9" height="9"/>
	<rect x="719" y="575" fill="#FFFFFF" width="9" height="9"/>
	<rect x="730" y="575" fill="#FFFFFF" width="8" height="9"/>
	<rect x="740" y="575" fill="#FFFFFF" width="9" height="9"/>
	<rect x="750" y="575" fill="#FFFFFF" width="10" height="9"/>
	<rect x="760" y="575" fill="#FFFFFF" width="9" height="9"/>
	<rect x="771" y="575" fill="#FFFFFF" width="9" height="9"/>
	<rect x="782" y="575" fill="#FFFFFF" width="9" height="9"/>
	<rect x="698" y="564" fill="#FFFFFF" width="9" height="9"/>
	<rect x="708" y="564" fill="#FFFFFF" width="9" height="9"/>
	<rect x="719" y="564" fill="#FFFFFF" width="9" height="9"/>
	<rect x="730" y="564" fill="#FFFFFF" width="8" height="9"/>
	<rect x="740" y="564" fill="#FFFFFF" width="9" height="9"/>
	<rect x="750" y="564" fill="#FFFFFF" width="10" height="9"/>
	<rect x="760" y="564" fill="#FFFFFF" width="9" height="9"/>
	<rect x="771" y="564" fill="#FFFFFF" width="9" height="9"/>
	<rect x="782" y="564" fill="#FFFFFF" width="9" height="9"/>
	<rect x="813" y="586" fill="#FFFFFF" width="9" height="8"/>
	<rect x="813" y="596" fill="#FFFFFF" width="9" height="9"/>
	<rect x="813" y="564" fill="#FFFFFF" width="9" height="9"/>
	<rect x="813" y="575" fill="#FFFFFF" width="9" height="9"/>
	<rect x="803" y="564" fill="#FFFFFF" width="9" height="9"/>
	<rect x="803" y="575" fill="#FFFFFF" width="9" height="9"/>
	<rect x="823" y="564" fill="#FFFFFF" width="10" height="9"/>
	<rect x="823" y="575" fill="#FFFFFF" width="10" height="9"/>
	<rect x="823" y="596" fill="#FFFFFF" width="10" height="9"/>
	<rect x="803" y="596" fill="#FFFFFF" width="9" height="9"/>
	<rect x="844" y="586" fill="#FFFFFF" width="9" height="8"/>
	<rect x="855" y="586" fill="#FFFFFF" width="9" height="8"/>
	<rect x="866" y="586" fill="#FFFFFF" width="8" height="8"/>
	<rect x="866" y="596" fill="#FFFFFF" width="8" height="9"/>
	<rect x="844" y="596" fill="#FFFFFF" width="20" height="9"/>
	<rect x="844" y="575" fill="#FFFFFF" width="9" height="9"/>
	<rect x="855" y="575" fill="#FFFFFF" width="9" height="9"/>
	<rect x="866" y="575" fill="#FFFFFF" width="8" height="9"/>
	<rect x="844" y="564" fill="#FFFFFF" width="9" height="9"/>
	<rect x="855" y="564" fill="#FFFFFF" width="9" height="9"/>
	<rect x="866" y="564" fill="#FFFFFF" width="8" height="9"/>
	<rect x="876" y="586" fill="#FFFFFF" width="9" height="19"/>
	<rect x="876" y="564" fill="#FFFFFF" width="9" height="20"/>
	<path fill="#B7B7B7" d="M1002,567.217c0,4.851-3.933,8.783-8.784,8.783h-11.432c-4.852,0-8.784-3.933-8.784-8.783v-24.434
		c0-4.851,3.933-8.783,8.784-8.783h11.432c4.852,0,8.784,3.933,8.784,8.783V567.217z"/>
	<path fill="#E2E2E2" d="M1002,562.216c0,4.852-3.933,8.784-8.784,8.784h-11.432c-4.852,0-8.784-3.933-8.784-8.784v-24.432
		c0-4.852,3.933-8.784,8.784-8.784h11.432c4.852,0,8.784,3.933,8.784,8.784V562.216z"/>
	<path fill="#B7B7B7" d="M987,530v18.45c0,0.304,0.246,0.55,0.549,0.55h0.902c0.303,0,0.549-0.246,0.549-0.55V530H987z"/>
	<path fill="#E84545" d="M1171,565.177L1170.931,532h-37.303l0.372,33.177v0.004c0,0.003,0,0.005,0,0.009
		c0,6.744,8.199,12.213,18.5,12.213s18.5-5.469,18.5-12.213c0-0.004,0-0.006,0-0.009V565.177z"/>
	<ellipse fill="#A0A0A0" cx="1152.279" cy="532.007" rx="18.651" ry="12.213"/>
	<ellipse fill="#565656" cx="1151.938" cy="531.753" rx="17.481" ry="11.155"/>
	<path fill="#E84545" d="M1170.836,538c-0.057,0-0.342,0-0.342,0l0.016,2.42c4.835,0.282,8.677,4.563,8.677,9.463
		c0,4.859-3.779,9.205-8.56,9.55l0.016,2.567c0,0,0.137,0,0.193,0c6.445,0,11.669-5.557,11.669-12S1177.281,538,1170.836,538z"/>
	<path fill="#774900" d="M1151.938,542.908c8.078,0,14.857-3.502,16.862-8.252c-2.005-4.75-8.784-8.252-16.862-8.252
		s-14.857,3.501-16.862,8.252C1137.081,539.406,1143.86,542.908,1151.938,542.908z"/>
	<rect x="688" y="269" fill="#EAEAEA" width="192" height="191"/>
	<rect x="688" y="268" fill="#2D466B" width="192" height="47"/>
	<rect x="688" y="315" fill="#161616" width="192" height="9"/>
	<path fill="#939393" d="M824,319.252c0,1.518-1.23,2.748-2.748,2.748h-13.504c-1.518,0-2.748-1.23-2.748-2.748v-0.504
		c0-1.518,1.23-2.748,2.748-2.748h13.504c1.518,0,2.748,1.23,2.748,2.748V319.252z"/>
	<path fill="#939393" d="M846,319.252c0,1.518-1.23,2.748-2.748,2.748h-13.505c-1.518,0-2.748-1.23-2.748-2.748v-0.504
		c0-1.518,1.23-2.748,2.748-2.748h13.505c1.518,0,2.748,1.23,2.748,2.748V319.252z"/>
	<path fill="#939393" d="M867,319.252c0,1.518-1.23,2.748-2.748,2.748h-13.504c-1.518,0-2.748-1.23-2.748-2.748v-0.504
		c0-1.518,1.23-2.748,2.748-2.748h13.504c1.518,0,2.748,1.23,2.748,2.748V319.252z"/>
	<path fill="#939393" d="M776,342.534c0,4.123-3.343,7.466-7.466,7.466h-61.068c-4.123,0-7.466-3.343-7.466-7.466v-0.068
		c0-4.123,3.343-7.466,7.466-7.466h61.068c4.123,0,7.466,3.343,7.466,7.466V342.534z"/>
	<path fill="#939393" d="M831,361.597c0,1.327-1.076,2.403-2.403,2.403H702.403c-1.327,0-2.403-1.076-2.403-2.403v-0.194
		c0-1.327,1.076-2.403,2.403-2.403h126.194c1.327,0,2.403,1.076,2.403,2.403V361.597z"/>
	<path fill="#939393" d="M831,371.597c0,1.327-1.076,2.403-2.403,2.403H702.403c-1.327,0-2.403-1.076-2.403-2.403v-0.194
		c0-1.327,1.076-2.403,2.403-2.403h126.194c1.327,0,2.403,1.076,2.403,2.403V371.597z"/>
	<path fill="#939393" d="M831,380.597c0,1.327-1.076,2.403-2.403,2.403H702.403c-1.327,0-2.403-1.076-2.403-2.403v-0.194
		c0-1.327,1.076-2.403,2.403-2.403h126.194c1.327,0,2.403,1.076,2.403,2.403V380.597z"/>
	<path fill="#939393" d="M831,389.597c0,1.327-1.076,2.403-2.403,2.403H702.403c-1.327,0-2.403-1.076-2.403-2.403v-0.194
		c0-1.327,1.076-2.403,2.403-2.403h126.194c1.327,0,2.403,1.076,2.403,2.403V389.597z"/>
	<path fill="#939393" d="M831,398.597c0,1.327-1.076,2.403-2.403,2.403H702.403c-1.327,0-2.403-1.076-2.403-2.403v-0.194
		c0-1.327,1.076-2.403,2.403-2.403h126.194c1.327,0,2.403,1.076,2.403,2.403V398.597z"/>
	<path fill="#939393" d="M831,407.597c0,1.327-1.076,2.403-2.403,2.403H702.403c-1.327,0-2.403-1.076-2.403-2.403v-0.194
		c0-1.327,1.076-2.403,2.403-2.403h126.194c1.327,0,2.403,1.076,2.403,2.403V407.597z"/>
	<path fill="#939393" d="M831,416.597c0,1.327-1.076,2.403-2.403,2.403H702.403c-1.327,0-2.403-1.076-2.403-2.403v-0.194
		c0-1.327,1.076-2.403,2.403-2.403h126.194c1.327,0,2.403,1.076,2.403,2.403V416.597z"/>
	<path fill="#939393" d="M831,425.597c0,1.327-1.076,2.403-2.403,2.403H702.403c-1.327,0-2.403-1.076-2.403-2.403v-0.194
		c0-1.327,1.076-2.403,2.403-2.403h126.194c1.327,0,2.403,1.076,2.403,2.403V425.597z"/>
	<path fill="#C4C4C4" d="M746,438.512c0,1.374-1.114,2.488-2.489,2.488h-41.022c-1.375,0-2.489-1.114-2.489-2.488v-0.023
		c0-1.374,1.114-2.488,2.489-2.488h41.022c1.375,0,2.489,1.114,2.489,2.488V438.512z"/>
	<path fill="#E84545" d="M1152.278,545.881c-6.418,0-12.061-2.124-15.416-5.357l0.138,24.298v0.003c0,0.004,0,0.005,0,0.008
		c0,5.567,6.996,10.082,15.5,10.082s15.5-4.515,15.5-10.082c0-0.003,0-0.004,0-0.008v-0.003l-0.203-24.216
		C1164.43,543.791,1158.643,545.881,1152.278,545.881z"/>
	<path fill="#D1D1D1" d="M1489.064,559.981c-3.055-10.185-15.999-17.829-31.361-17.829c-15.361,0-28.07,7.645-31.125,17.829
		l-0.578-1.533v6.21c0,12.43,14.362,22.506,32,22.506c17.639,0,32-10.076,32-22.506v-5.411L1489.064,559.981z"/>
	<circle fill="#232323" cx="657.96" cy="1038.079" r="29.45"/>
	<ellipse fill="#B7B7B7" cx="1457.583" cy="559.247" rx="31.938" ry="22.505"/>
	<rect x="1431" y="557" fill="#D1D1D1" width="20" height="6"/>
	<rect x="1431" y="555" fill="#474747" width="20" height="6"/>
	<rect x="1431" y="556" fill="#606060" width="18" height="4"/>
	<path fill="#AFAFAF" d="M1438,558.69c0,0.171-0.139,0.31-0.31,0.31h-4.381c-0.171,0-0.31-0.139-0.31-0.31v-0.381
		c0-0.171,0.139-0.31,0.31-0.31h4.381c0.171,0,0.31,0.139,0.31,0.31V558.69z"/>
	<circle fill="#AFAFAF" cx="1445.122" cy="558.131" r="1.29"/>
	<circle fill="#474747" cx="1484.466" cy="412.733" r="13.351"/>
	
		<rect x="1411.943" y="319.455" transform="matrix(0.2806 -0.9598 0.9598 0.2806 647.4166 1636.2556)" fill="#474747" width="6.637" height="133.557"/>
	
		<rect x="1409.151" y="329.009" transform="matrix(0.2806 -0.9598 0.9598 0.2806 636.1854 1640.4175)" fill="#474747" width="6.636" height="133.559"/>
	<path fill="#474747" d="M1365.144,431.124c0.044-0.132,0.095-0.259,0.138-0.392c8.395-25.935-5.293-53.593-30.574-61.776
		c-25.281-8.184-52.58,6.207-60.977,32.141c-0.043,0.133-0.076,0.265-0.117,0.398L1365.144,431.124z"/>
	<polygon fill="#474747" points="1353.299,380.206 1313.049,367.176 1327.732,332.692 1361.604,343.657 	"/>
	<path fill="#B7B7B7" d="M1348.454,335.913c-0.423,1.308-1.825,2.025-3.133,1.602l0,0c-1.309-0.423-2.024-1.827-1.602-3.134
		l0.255-0.789c0.424-1.308,1.827-2.024,3.135-1.602l0,0c1.308,0.423,2.023,1.827,1.602,3.135L1348.454,335.913z"/>
	
		<ellipse transform="matrix(0.9514 0.308 -0.308 0.9514 169.5251 -397.6887)" fill="#474747" cx="1344.664" cy="338.221" rx="17.812" ry="2.936"/>
	
		<ellipse transform="matrix(0.9514 0.308 -0.308 0.9514 192.2504 -386.1554)" fill="#B7B7B7" cx="1319.484" cy="415.981" rx="48.113" ry="5.048"/>
	<polygon fill="#474747" points="1477.831,558 1491.111,423.263 1484.501,422.745 1471.163,558 	"/>
	<polygon fill="#474747" points="1467.828,558 1481.197,422.378 1474.587,421.859 1461.16,558 	"/>
	<rect x="1465" y="549" fill="#474747" width="10" height="9"/>
	<circle fill="#B2B2B2" cx="1484.481" cy="412.748" r="7.559"/>
	<path fill="#9A7121" d="M1441.822,209.307h-1.245h-339.283h-1.244h-22.813v23.227h0.011c0.222,12.407,10.343,22.398,22.802,22.398
		h341.772c12.459,0,22.58-9.991,22.802-22.398h0.011v-23.227H1441.822z"/>
	<path fill="#E6BF74" d="M1441.822,201.011h-1.245h-339.283h-1.244h-22.813v23.227h0.011c0.222,12.407,10.343,22.397,22.802,22.397
		h341.772c12.459,0,22.58-9.99,22.802-22.397h0.011v-23.227H1441.822z"/>
	<path fill="#9A7121" d="M989.721,119.716h-1.244H649.192h-1.244h-22.813v23.227h0.011c0.222,12.408,10.342,22.398,22.802,22.398
		h341.772c12.459,0,22.58-9.99,22.802-22.398h0.011v-23.227H989.721z"/>
	<path fill="#E6BF74" d="M989.721,111.42h-1.244H649.192h-1.244h-22.813v23.227h0.011c0.222,12.408,10.342,22.398,22.802,22.398
		h341.772c12.459,0,22.58-9.99,22.802-22.398h0.011V111.42H989.721z"/>
	<polyline fill="#82AD5C" points="1415,223 1415,147 1433,147 1433,223 	"/>
	<rect x="1391" y="131" fill="#DBBE45" width="24" height="90"/>
	<rect x="1415" y="157" fill="#A0DD72" width="18" height="76"/>
	<polyline fill="#A54D3F" points="1374,223 1374,155 1391,155 1391,223 	"/>
	<rect x="1391" y="143" fill="#F7DC69" width="24" height="90"/>
	<rect x="1374" y="165" fill="#E2715A" width="17" height="68"/>
	<polyline fill="#5381AA" points="1433,223 1433,164 1449,164 1449,223 	"/>
	<rect x="1433" y="174" fill="#77B5ED" width="16" height="59"/>
	<line fill="#F7DC69" x1="1391" y1="223" x2="1391" y2="133"/>
	<line fill="#F7DC69" x1="1415" y1="133" x2="1415" y2="223"/>
	<polyline fill="#365A66" points="1357,223 1357,147 1374,147 1374,223 	"/>
	<rect x="1357" y="157" fill="#4D8096" width="17" height="76"/>
	<rect x="1361" y="215" fill="#6B4C3D" width="10" height="10"/>
	<rect x="1391" y="202" fill="#91F99A" width="24" height="20"/>
	<rect x="1415" y="217" fill="#DAFF55" width="18" height="2"/>
	<rect x="1415" y="213" fill="#DAFF55" width="18" height="3"/>
	<rect x="1415" y="220" fill="#DAFF55" width="18" height="3"/>
	<polygon display="none" fill="#AD6A27" points="1303,398 1227.381,420.022 1214,370 1303,370 	"/>
	<path fill="#AD6A27" d="M1185.907,200h-33.265l5.89,26.636c0,0,0.242,1.049,0.7,2.034c0.006,0.012,0.016-0.098,0.021-0.086
		c2.255,5.419,13.279,9.416,26.551,9.416c0.035,0,0.068,0,0.103,0c0,0,0.026,0,0.062,0c13.271,0,24.253-3.975,26.509-9.394
		c0.005-0.011,0.015,0.051,0.021,0.039c0.458-0.985,0.7-2.044,0.7-2.044l5.147-26.602H1185.907z"/>
	<path fill="#BA7B3C" d="M1227,181h-5.535c-6.991-5-20.478-9.125-35.972-9.125c-15.495,0-28.981,4.125-35.972,9.125H1144v8h0.442
		c-0.002,0-0.012,0.336-0.012,0.406c0,9.735,18.384,17.727,41.063,17.727c22.678,0,41.062-8.041,41.062-17.776
		c0-0.07-0.01-0.356-0.012-0.356H1227V181z"/>
	<ellipse fill="#FFAF57" cx="1185.493" cy="181.31" rx="41.062" ry="17.627"/>
	<ellipse fill="#AD6A27" cx="1185.659" cy="180.43" rx="37.081" ry="15.919"/>
	<path fill="#3C6600" d="M1185.527,170.457c-18.56,0-33.844,6.02-35.882,13.766c3.965,6.96,18.581,12.126,36.015,12.126
		c17.168,0,31.604-5.01,35.826-11.809C1219.787,176.642,1204.34,170.457,1185.527,170.457z"/>
	<g>
		<path fill="#CC9544" d="M1202.786,144.153l-8.785,4.937c0,0-4.553,3.74-7.743,8.12c-0.521-4.447-1.342-9.129-3.115-13.921
			c-0.091-0.245-0.171-0.497-0.257-0.745c0.078-0.331,2.451-10.258,9.099-14.015c6.76-3.821-4.854,0-4.854,0
			s-4.042,3.64-5.509,9.605c-1.636-7.089-1.763-14.864-1.376-21.434c0.033-0.038,5.722-6.461,8.578-8.042
			c2.866-1.585-3.955,1.508-3.955,1.508s-2.835,2.738-4.498,4.667c0.587-7.771,1.804-13.436,1.804-13.436
			c-1.234,3.126-4.796,10.417-6.225,20.704c-2.085-6.231-3.861-8.196-3.861-8.196s-6.946-6.628-10.067-9.607
			c6.388,6.116,13.354,24.524,13.354,24.524l0.001,0.001c-0.068,2.178-0.021,4.458,0.161,6.826
			c-3.561-3.175-6.014-4.113-6.014-4.113c0,0-7.121-1.832-7.121-1.832s3.846,1.495,6.464,2.558c6.11,2.48,7.178,7.938,7.178,7.938
			l0.039,0.259l0,0c0.32,2.084,0.751,4.228,1.314,6.428c1.355,5.299,1.892,10.157,1.917,14.508
			c-1.856-4.091-6.154-6.673-6.154-6.673l-1.825-0.916l-2.719,0.441c0,0-5.732-0.514,2.854,3.921
			c7.419,3.833,7.545,8.876,7.442,10.177l0.065-0.56c-0.023,0.207-0.045,0.415-0.07,0.619c0.002-0.018,0.003-0.039,0.005-0.059
			l-0.022,0.188c-1.078,8.444-3.888,14.02-4.908,15.821c-0.239,0.148-0.38,0.295-0.38,0.456c0,0.039,0.021,0.086,0.037,0.125
			c-0.022,0.035-0.037,0.065-0.037,0.065h0.054c0.536,1,5.35,1.659,11.213,1.659s10.676-0.659,11.212-1.659h0.054
			c-7.699-5-8.465-12.754-9.299-22.066l0,0c0,0,4.855-10.292,13.672-13.011C1209.325,147.204,1202.786,144.153,1202.786,144.153z"/>
		<path fill="#DDB357" d="M1162.021,104.298c-0.006-0.006-0.012-0.013-0.018-0.018
			C1159.764,102.142,1160.337,102.69,1162.021,104.298z"/>
	</g>
	<path fill="#71DB58" d="M1208.732,154.353c-5.476,2.592-12.117,0.257-14.731-5.263c-2.614-5.522-0.212-12.139,5.264-14.731
		c1.146-0.543,4.939-2.399,10.816-2.242c6.337,0.17,14.741,2.378,14.741,2.378s-5.185,3.421-9.046,9.21
		C1212.996,147.873,1213.711,151.995,1208.732,154.353z"/>
	<path fill="#71DB58" d="M1197.988,131.215c-3.397,2.316-8.095,1.455-10.427-1.966c-2.333-3.422-1.416-8.109,1.981-10.425
		c0.712-0.485,3.06-2.13,7.015-2.646c4.267-0.557,10.132,0.032,10.132,0.032s-3.115,2.84-5.097,7.126
		C1200.167,126.424,1201.079,129.108,1197.988,131.215z"/>
	<path fill="#71DB58" d="M1189.982,111.828c-1.539,1.05-3.67,0.658-4.728-0.895c-1.059-1.552-0.645-3.678,0.895-4.727
		c0.323-0.219,1.387-0.965,3.179-1.198c1.935-0.251,4.594,0.018,4.594,0.018s-1.412,1.287-2.308,3.23
		C1190.969,109.656,1191.382,110.874,1189.982,111.828z"/>
	<path fill="#71DB58" d="M1159.718,161.502c5.163,2.014,11.075-0.544,13.104-5.751c2.031-5.207-0.585-11.091-5.75-13.105
		c-1.08-0.421-4.662-1.872-10.016-1.35c-5.771,0.563-13.301,3.118-13.301,3.118s4.952,2.789,8.849,7.824
		C1155.41,155.864,1155.021,159.671,1159.718,161.502z"/>
	<path fill="#71DB58" d="M1157.34,114.162c3.864,3.973,10.304,4.095,14.31,0.198c4.007-3.897,4.064-10.336,0.199-14.31
		c-0.809-0.831-3.467-3.636-8.556-5.379c-5.486-1.881-13.397-2.675-13.397-2.675s3.352,4.59,4.811,10.787
		C1155.756,107.245,1153.825,110.549,1157.34,114.162z"/>
	<path fill="#71DB58" d="M1162.071,137.084c3.759,0.972,7.657-1.297,8.637-5.087c0.981-3.79-1.326-7.665-5.086-8.637
		c-0.787-0.203-3.397-0.915-7.078-0.107c-3.967,0.87-8.991,3.271-8.991,3.271s3.676,1.529,6.803,4.708
		C1158.607,133.521,1158.653,136.2,1162.071,137.084z"/>
	<polyline fill="#A54D3F" points="1340,223 1340,155 1357,155 1357,223 	"/>
	<rect x="1340" y="165" fill="#E2715A" width="17" height="68"/>
	<rect x="1316" y="131" fill="#D3B44F" width="24" height="90"/>
	<rect x="1316" y="143" fill="#FFCD52" width="24" height="90"/>
	<polyline fill="#5381AA" points="1278.405,209.461 1302.244,155.604 1316.656,161.983 1292.817,215.841 	"/>
	
		<rect x="1283.942" y="162.532" transform="matrix(-0.9144 -0.4048 0.4048 -0.9144 2392.6819 903.1488)" fill="#77B5ED" width="15.761" height="72.17"/>
	<circle fill="#FFFF83" cx="1328.428" cy="216.877" r="6.424"/>
	<circle fill="#B8EA68" cx="436.105" cy="240.411" r="68.434"/>
	<circle fill="#F4F4F4" cx="436.082" cy="240.389" r="62.604"/>
	<line fill="none" stroke="#777777" stroke-width="3" stroke-miterlimit="10" x1="389" y1="240.5" x2="375" y2="240.5"/>
	<line fill="none" stroke="#CCCCCC" stroke-miterlimit="10" x1="479.113" y1="197.473" x2="472.074" y2="204.512"/>
	<line fill="none" stroke="#CCCCCC" stroke-miterlimit="10" x1="400.512" y1="276.074" x2="393.473" y2="283.113"/>
	<line fill="none" stroke="#CCCCCC" stroke-miterlimit="10" x1="478.526" y1="283.113" x2="472.074" y2="277.664"/>
	<line fill="none" stroke="#CCCCCC" stroke-miterlimit="10" x1="400.512" y1="205.098" x2="392.887" y2="197.473"/>
	<line fill="none" stroke="#777777" stroke-width="3" stroke-miterlimit="10" x1="497" y1="240.5" x2="483" y2="240.5"/>
	<line fill="none" stroke="#777777" stroke-width="3" stroke-miterlimit="10" x1="436.5" y1="287" x2="436.5" y2="301"/>
	<line fill="none" stroke="#777777" stroke-width="3" stroke-miterlimit="10" x1="436.5" y1="179" x2="436.5" y2="193"/>
	<line fill="none" stroke="#777777" stroke-width="2" stroke-miterlimit="10" x1="436.352" y1="240.085" x2="468.873" y2="207.57"/>
	<line fill="none" stroke="#777777" stroke-width="3" stroke-miterlimit="10" x1="436.352" y1="240.085" x2="415.997" y2="220.57"/>
	<circle fill="#4C4C4C" cx="436.352" cy="240.085" r="1.962"/>
	<path fill="none" stroke="#777777" stroke-width="2" stroke-miterlimit="10" d="M472.454,207.57"/>
	<path fill="none" stroke="#777777" stroke-width="2" stroke-miterlimit="10" d="M438.104,239.44"/>
	<path fill="none" stroke="#777777" stroke-width="3" stroke-miterlimit="10" d="M437.244,240.085"/>
	<line fill="none" stroke="#777777" stroke-miterlimit="10" x1="436.5" y1="241" x2="436.5" y2="286"/>
	<circle fill="#4C4C4C" cx="436.664" cy="240.397" r="2.479"/>
	<rect x="699" y="64" fill="#424242" width="53" height="74"/>
	<rect x="702" y="67" fill="#6DDDE2" width="46" height="59"/>
	<g>
		<path fill="#FFB32C" d="M721.874,102.736c1.379-0.988,3.064-1.576,4.89-1.576s3.511,0.588,4.89,1.576
			c1.379-0.988,3.064-1.576,4.89-1.576c0.43,0,0.85,0.041,1.262,0.104c0-0.039,0.006-0.076,0.006-0.114
			c0-7.118-5.771-12.888-12.888-12.888s-12.888,5.77-12.888,12.888c0,0.529,0.042,1.047,0.104,1.56
			c1.371-0.97,3.038-1.549,4.846-1.549C718.811,101.16,720.495,101.748,721.874,102.736z"/>
		<path fill="#299EFF" d="M707.204,101.16c-1.967,0-3.771,0.68-5.204,1.811v1.88c0.555-0.116,1.122-0.198,1.711-0.198
			c1.528,0,2.956,0.413,4.192,1.125c0.596-0.344,1.237-0.615,1.914-0.805c0.063-0.018,0.126-0.033,0.19-0.049
			c0.262-0.067,0.529-0.121,0.8-0.163c0.086-0.013,0.171-0.028,0.258-0.039c0.338-0.041,0.68-0.069,1.029-0.069
			c0.262,0,0.521,0.015,0.777,0.039c0.089,0.009,0.177,0.021,0.266,0.032c0.163,0.021,0.325,0.044,0.485,0.073
			c0.107,0.02,0.214,0.041,0.32,0.065c0.132,0.03,0.263,0.064,0.393,0.1c0.119,0.033,0.238,0.062,0.355,0.1
			c0.07,0.023,0.138,0.048,0.207,0.072c0.312,0.11,0.614,0.23,0.907,0.375c0.037,0.019,0.075,0.021,0.112,0.041
			c0.164,0.084,0.323,0.146,0.481,0.24c0.035,0.021,0.07-0.015,0.104,0.006c0.164,0.102,0.324,0.204,0.48,0.204c0,0,0.001,0,0.001,0
			c1.379,0,3.063-1.461,4.89-1.461s3.511,0.702,4.89,1.689c1.379-0.988,3.064-1.575,4.89-1.575c1.826,0,3.511,0.587,4.89,1.575
			c1.379-0.988,3.064-1.575,4.89-1.575c1.528,0,2.956,0.413,4.191,1.125c0.729-0.42,1.53-0.721,2.375-0.909v-3.122
			c-0.953-0.375-1.987-0.587-3.073-0.587c-1.528,0-2.956,0.414-4.191,1.125c-0.888-0.511-1.877-0.861-2.93-1.022
			c-0.412-0.063-0.832-0.104-1.262-0.104c-1.826,0-3.511,0.588-4.89,1.576c-1.379-0.988-3.064-1.576-4.89-1.576
			s-3.511,0.588-4.89,1.576c-1.379-0.988-3.063-1.576-4.89-1.576c-1.808,0-3.475,0.579-4.846,1.549
			c-0.014,0.01-0.03,0.017-0.044,0.027C710.715,101.748,709.03,101.16,707.204,101.16z"/>
		<path fill="#278EFF" d="M741.434,104.653c-1.826,0-3.511,0.587-4.89,1.575c-1.379-0.988-3.064-1.575-4.89-1.575
			c-1.826,0-3.511,0.587-4.89,1.575c-1.379-0.988-3.064-1.689-4.89-1.689s-3.511,1.461-4.89,1.461c0,0-0.001,0-0.001,0
			c-0.156,0-0.316-0.103-0.48-0.204c-0.035-0.021-0.069,0.015-0.104-0.006c-0.158-0.094-0.317-0.156-0.481-0.24
			c-0.037-0.019-0.076-0.021-0.112-0.041c-0.293-0.145-0.596-0.264-0.907-0.375c-0.069-0.024-0.137-0.049-0.207-0.072
			c-0.117-0.038-0.236-0.067-0.355-0.1c-0.13-0.036-0.26-0.07-0.393-0.1c-0.106-0.024-0.213-0.045-0.32-0.065
			c-0.16-0.029-0.322-0.053-0.485-0.073c-0.089-0.011-0.176-0.023-0.266-0.032c-0.256-0.023-0.515-0.039-0.777-0.039
			c-0.35,0-0.691,0.028-1.029,0.069c-0.087,0.011-0.172,0.026-0.258,0.039c-0.271,0.042-0.538,0.096-0.8,0.163
			c-0.063,0.017-0.127,0.031-0.19,0.049c-0.677,0.19-1.318,0.461-1.914,0.805c-1.236-0.712-2.664-1.125-4.192-1.125
			c-0.589,0-1.157,0.082-1.711,0.198v5.458c0.333-0.04,0.669-0.067,1.013-0.067c1.826,0,3.511,0.588,4.891,1.576
			c1.378-0.988,3.063-1.576,4.89-1.576c1.826,0,3.511,0.588,4.89,1.576c1.379-0.988,3.064-1.576,4.89-1.576
			c1.826,0,3.511,0.588,4.89,1.576c1.379-0.988,3.064-1.576,4.89-1.576c1.528,0,2.956,0.413,4.191,1.125
			c0.597-0.344,1.238-0.615,1.915-0.805c0.063-0.018,0.126-0.033,0.189-0.049c0.262-0.067,0.529-0.121,0.8-0.164
			c0.086-0.013,0.171-0.028,0.258-0.039c0.338-0.042,0.68-0.069,1.029-0.069c0.263,0,0.521,0.015,0.777,0.039
			c0.09,0.008,0.177,0.021,0.266,0.031c0.163,0.02,0.325,0.043,0.485,0.073c0.108,0.02,0.214,0.04,0.321,0.064
			c0.132,0.03,0.262,0.061,0.392,0.098c0.119,0.032,0.239,0.058,0.355,0.096c0.07,0.023,0.138,0.038,0.207,0.063
			c0.312,0.11,0.614,0.212,0.907,0.357c0.037,0.019,0.075-0.016,0.112,0.003c0.164,0.084,0.323,0.073,0.48,0.167
			c0.036,0.021,0.07-0.162,0.105-0.14c0.164,0.101,0.324-0.091,0.48-0.091c0,0,0.001,0,0.001,0c0.716,0,1.516-0.314,2.375-0.617
			v-5.514c-0.844,0.188-1.646,0.489-2.375,0.909C744.39,105.066,742.962,104.653,741.434,104.653z"/>
		<path fill="#299EFF" d="M745.624,111c-0.156,0-0.316,0.191-0.48,0.091c-0.035-0.021-0.069,0.161-0.105,0.14
			c-0.157-0.094-0.316-0.082-0.48-0.167c-0.037-0.019-0.075,0.016-0.112-0.003c-0.293-0.145-0.596-0.247-0.907-0.357
			c-0.069-0.025-0.137-0.04-0.207-0.063c-0.117-0.038-0.236-0.063-0.355-0.096c-0.129-0.037-0.26-0.068-0.392-0.098
			c-0.107-0.024-0.213-0.044-0.321-0.064c-0.16-0.029-0.322-0.053-0.485-0.073c-0.089-0.011-0.176-0.023-0.266-0.031
			c-0.256-0.024-0.515-0.039-0.777-0.039c-0.349,0-0.691,0.028-1.029,0.069c-0.087,0.01-0.172,0.026-0.258,0.039
			c-0.271,0.042-0.538,0.097-0.8,0.164c-0.063,0.016-0.127,0.031-0.189,0.049c-0.677,0.19-1.318,0.461-1.915,0.805
			c-1.235-0.712-2.663-1.125-4.191-1.125c-1.826,0-3.511,0.588-4.89,1.576c-1.378-0.988-3.063-1.576-4.89-1.576
			c-1.826,0-3.511,0.588-4.89,1.576c-1.379-0.988-3.064-1.576-4.89-1.576c-1.826,0-3.511,0.588-4.89,1.576
			c-1.379-0.988-3.064-1.576-4.891-1.576c-0.343,0-0.68,0.027-1.013,0.067v6.439c1.144-0.582,2.436-0.917,3.807-0.917
			c1.826,0,3.511,0.588,4.89,1.576c1.379-0.988,3.064-1.576,4.89-1.576c1.826,0,3.51,0.588,4.89,1.576
			c1.379-0.988,3.064-1.576,4.89-1.576c1.826,0,3.511,0.588,4.89,1.576c1.379-0.988,3.064-1.576,4.89-1.576
			c1.528,0,2.957,0.413,4.191,1.125c1.235-0.712,2.664-1.125,4.191-1.125c1.645,0,3.174,0.479,4.47,1.295v-6.742
			c-0.858,0.303-1.658,0.617-2.375,0.617C745.625,111,745.624,111,745.624,111z"/>
		<path fill="#278EFF" d="M739.338,116.956c-1.235-0.712-2.664-1.125-4.191-1.125c-1.826,0-3.511,0.588-4.89,1.576
			c-1.379-0.988-3.064-1.576-4.89-1.576c-1.826,0-3.511,0.588-4.89,1.576c-1.379-0.988-3.064-1.576-4.89-1.576
			c-1.826,0-3.511,0.588-4.89,1.576c-1.379-0.988-3.064-1.576-4.89-1.576c-1.372,0-2.663,0.335-3.807,0.917v2.776
			c6.663-0.895,14.2-1.403,22.192-1.403c8.645,0,16.76,0.593,23.808,1.629v-2.625c-1.296-0.815-2.826-1.295-4.47-1.295
			C742.002,115.83,740.573,116.243,739.338,116.956z"/>
		<path fill="#F7FFA9" d="M702,119.524V126h46v-6.25c-7.048-1.037-15.163-1.629-23.808-1.629
			C716.2,118.121,708.663,118.629,702,119.524z"/>
	</g>
	<path fill="#ABF7FF" d="M725.657,76h-0.886c0.128-1,0.206-0.753,0.206-1.132c0-1.474-1.061-2.724-2.459-2.981
		c-0.586-1.698-2.194-2.934-4.091-2.934c-1.397,0-2.636,0.658-3.428,1.685c-0.523-0.212-1.093-0.335-1.691-0.335
		c-2.491,0-4.51,2.076-4.51,4.567c0,0.371,0.05,0.13,0.134,1.13h-0.098c-1.206,0-2.833,0.861-2.833,2.067v0.214
		c0,1.207,1.627,1.719,2.833,1.719h16.824c1.207,0,2.343-0.512,2.343-1.719v-0.214C728,76.861,726.863,76,725.657,76z"/>
	<path fill="#ABF7FF" d="M741.724,78h-0.887c0.129-1,0.207-0.705,0.207-1.085c0-1.474-1.061-2.698-2.459-2.956
		c-0.586-1.698-2.194-2.922-4.091-2.922c-1.397,0-2.636,0.663-3.428,1.69c-0.523-0.212-1.093-0.332-1.691-0.332
		c-2.491,0-4.51,2.03-4.51,4.521c0,0.371,0.05,0.084,0.134,1.084H724.9c-1.207,0-1.9,0.957-1.9,2.163v0.215
		c0,1.206,0.694,1.623,1.9,1.623h16.824c1.206,0,2.276-0.417,2.276-1.623v-0.215C744,78.957,742.93,78,741.724,78z"/>
	<path fill="#7C2713" d="M1321,581.011c0,7.174-5.815,12.989-12.989,12.989h-34.021c-7.174,0-12.989-5.815-12.989-12.989v-51.021
		c0-7.174,5.815-12.989,12.989-12.989h34.021c7.174,0,12.989,5.815,12.989,12.989V581.011z"/>
	<path fill="#561A0E" d="M1319,580.537c0,7.097-5.189,12.463-12.162,12.463h-32.813c-6.974,0-13.025-5.366-13.025-12.463v-50.62
		c0-7.096,6.052-12.917,13.025-12.917h32.813c6.973,0,12.162,5.821,12.162,12.917V580.537z"/>
	<polygon fill="#F2F25C" points="1303.493,596.152 1307,599.893 1307,588 1300,588 1300,599.878 	"/>
	<path fill="#CCCCCC" d="M1261,535v44.707c0,7.097,6.052,13.293,13.025,13.293h32.813c6.973,0,12.162-6.196,12.162-13.293V535H1261z
		"/>
	<path fill="#D6D6D6" d="M1261,534v43.219c0,7.097,6.052,12.781,13.025,12.781h32.813c6.973,0,12.162-5.685,12.162-12.781V534H1261z
		"/>
	<path fill="#CCCCCC" d="M1261,532v42.73c0,7.097,6.052,13.27,13.025,13.27h32.813c6.973,0,12.162-6.173,12.162-13.27V532H1261z"/>
	<path fill="#D6D6D6" d="M1261,537v35.242c0,7.096,6.052,12.758,13.025,12.758h32.813c6.973,0,12.162-5.662,12.162-12.758V537H1261z
		"/>
	<path fill="#7C2713" d="M1307.305,517h-33.749c-7.174,0-12.556,5.883-12.556,13.057v51.169c0,3.072,0.857,5.888,2.643,8.109
		c-0.432-0.742-0.79-1.602-0.79-2.522c0-2.784,2.187-5.041,4.971-5.041c0.084,0,0.177,0.009,0.177,0.013V582h4.18h11.614h30.278
		c3.437,0,5.928-3.014,5.928-6.449v-45.494C1320,522.883,1314.478,517,1307.305,517z"/>
	<path fill="#B24122" d="M1307.305,517h-33.749c-7.174,0-12.556,5.883-12.556,13.057v50.34c0,0.336-0.214,0.676-0.209,1.014
		c0.03,2.119,0.465,4.11,1.397,5.866c-0.056-0.625-0.097-1.264-0.024-1.694c0.449-2.747,2.848-4.64,5.632-4.64
		c0.084,0,0.204,0.008,0.204,0.012V581h4.18h11.614h30.278c3.437,0,5.928-2.843,5.928-6.279v-44.664
		C1320,522.883,1314.478,517,1307.305,517z"/>
	<path fill="#87260F" d="M1317,575.904c0-1.604-1.3-2.904-2.903-2.904h-7.193c-1.604,0-2.903,1.3-2.903,2.904v0.191
		c0,1.604,1.3,2.904,2.903,2.904h7.193c1.604,0,2.903-1.3,2.903-2.904V575.904z"/>
	<path fill="#FFFC8F" d="M1321.039,411.179c-4.455-1.442-8.777-2.766-12.889-3.959c0.508,5.081,3.728,9.356,8.195,11.366
		c1.031,0.332,2.058,0.658,3.073,0.976c0.862,0.166,1.75,0.26,2.66,0.26c4.179,0,7.923-1.836,10.488-4.739
		C1328.902,413.784,1325.039,412.474,1321.039,411.179z"/>
	<path fill="#B26900" d="M1161.574,395.789"/>
	<path fill="#B26900" d="M1157.504,483.085c0,0-7.041-10.433-0.682-18.463s8.56-18.025,4.276-24.868c0,0,4.149,6.552,3.512,12.364
		c-1.167,10.633-5.019,12.643-7.28,19.021C1155.067,477.518,1157.504,483.085,1157.504,483.085z"/>
	<path fill="#B26900" d="M1150.114,516.515c0,0,8.911-13.206,0.861-23.371c-8.049-10.164-10.835-22.815-5.413-31.478
		c0,0-5.251,8.295-4.443,15.65c1.477,13.459,6.351,16.003,9.215,24.077C1153.197,509.468,1150.114,516.515,1150.114,516.515z"/>
	<path fill="#B26900" d="M1152.369,459.453c0,0-8.457-12.533-0.818-22.179c7.64-9.645,10.282-21.651,5.137-29.872
		c0,0,4.984,7.871,4.218,14.852c-1.4,12.773-6.027,15.187-8.744,22.849C1149.443,452.766,1152.369,459.453,1152.369,459.453z"/>
	<rect x="378" y="515" fill="#3D827A" width="66" height="46"/>
	<rect x="378" y="512" fill="#65DBD0" width="66" height="46"/>
	<rect x="378" y="512" fill="#1E4147" width="7" height="46"/>
	<ellipse fill="#FFFFFF" cx="414.516" cy="534.639" rx="26.629" ry="21.291"/>
	<ellipse fill="#A1E2DA" cx="414.4" cy="535.209" rx="4.946" ry="3.954"/>
	<ellipse fill="#65DBD0" cx="414.465" cy="535.132" rx="3.351" ry="2.681"/>
	<rect x="378" y="558" fill="#30676D" width="7" height="3"/>
	<rect x="381" y="510" fill="#849E51" width="67" height="46"/>
	<rect x="381" y="507" fill="#AED866" width="67" height="46"/>
	<rect x="381" y="507" fill="#2A5B0B" width="8" height="46"/>
	<ellipse fill="#FFFFFF" cx="417.834" cy="529.661" rx="26.63" ry="21.291"/>
	<ellipse fill="#DBF4AB" cx="417.718" cy="530.231" rx="4.946" ry="3.954"/>
	<ellipse fill="#AED866" cx="417.783" cy="530.154" rx="3.351" ry="2.681"/>
	<rect x="381" y="553" fill="#183D0C" width="8" height="3"/>
	<rect x="371" y="506" fill="#CECC6E" width="67" height="46"/>
	<rect x="371" y="503" fill="#F2EF97" width="67" height="46"/>
	<rect x="371" y="503" fill="#AFA828" width="8" height="46"/>
	<ellipse fill="#FFFFFF" cx="407.879" cy="525.514" rx="26.629" ry="21.291"/>
	<ellipse fill="#FFFDD2" cx="407.764" cy="526.084" rx="4.946" ry="3.954"/>
	<ellipse fill="#F2EF97" cx="407.828" cy="526.007" rx="3.351" ry="2.681"/>
	<rect x="371" y="549" fill="#4C4610" width="8" height="3"/>
	<path fill="#474747" d="M1481.177,562c-0.217-7-5.525-11.673-12.06-11.673c-6.532,0-11.842,4.673-12.059,11.673H1481.177z"/>
	<path fill="#FFE2A1" d="M986,132.682c0,1.833-1.485,3.318-3.318,3.318h-34.363c-1.833,0-3.318-1.486-3.318-3.318V24.318
		c0-1.833,1.485-3.318,3.318-3.318h34.363c1.833,0,3.318,1.486,3.318,3.318V132.682z"/>
	<path fill="#EDCD7E" d="M986,136.682c0,1.833-1.485,3.318-3.318,3.318h-34.363c-1.833,0-3.318-1.485-3.318-3.318V28.318
		c0-1.833,1.485-3.318,3.318-3.318h34.363c1.833,0,3.318,1.485,3.318,3.318V136.682z"/>
	<circle fill="#5E3F1C" cx="965.858" cy="117.651" r="10.013"/>
	<circle fill="#232323" cx="914.96" cy="1038.079" r="29.45"/>
	<rect x="945" y="69" fill="#EFEFEF" width="41" height="5"/>
	<rect x="945" y="76" fill="#EFEFEF" width="41" height="5"/>
	<rect x="945" y="82" fill="#EFEFEF" width="41" height="5"/>
	<path fill="#FFE2A1" d="M933,132.682c0,1.833-1.485,3.318-3.318,3.318h-34.363c-1.833,0-3.318-1.486-3.318-3.318V24.318
		c0-1.833,1.485-3.318,3.318-3.318h34.363c1.833,0,3.318,1.486,3.318,3.318V132.682z"/>
	<path fill="#EDCD7E" d="M933,136.682c0,1.833-1.485,3.318-3.318,3.318h-34.363c-1.833,0-3.318-1.485-3.318-3.318V28.318
		c0-1.833,1.485-3.318,3.318-3.318h34.363c1.833,0,3.318,1.485,3.318,3.318V136.682z"/>
	<circle fill="#5E3F1C" cx="912.767" cy="117.651" r="10.013"/>
	<rect x="892" y="69" fill="#EFEFEF" width="41" height="5"/>
	<rect x="892" y="76" fill="#EFEFEF" width="41" height="5"/>
	<rect x="892" y="82" fill="#EFEFEF" width="41" height="5"/>
	<path fill="#FFE2A1" d="M881,132.682c0,1.833-1.485,3.318-3.318,3.318h-34.364c-1.833,0-3.318-1.486-3.318-3.318V24.318
		c0-1.833,1.485-3.318,3.318-3.318h34.364c1.833,0,3.318,1.486,3.318,3.318V132.682z"/>
	<path fill="#EDCD7E" d="M881,136.682c0,1.833-1.485,3.318-3.318,3.318h-34.364c-1.833,0-3.318-1.485-3.318-3.318V28.318
		c0-1.833,1.485-3.318,3.318-3.318h34.364c1.833,0,3.318,1.485,3.318,3.318V136.682z"/>
	<circle fill="#5E3F1C" cx="860.506" cy="117.651" r="10.013"/>
	<rect x="840" y="69" fill="#EFEFEF" width="41" height="5"/>
	<rect x="840" y="76" fill="#EFEFEF" width="41" height="5"/>
	<rect x="840" y="82" fill="#EFEFEF" width="41" height="5"/>
	<rect x="642" y="792" fill="#9AB260" width="287" height="71"/>
	<path fill="#9AB260" d="M929,718.522C929,741.43,910.43,760,887.522,760H683.478C660.57,760,642,741.43,642,718.522v-57.045
		C642,638.57,660.57,620,683.478,620h204.045C910.43,620,929,638.57,929,661.478V718.522z"/>
	<path fill="#C0E872" d="M930,730.522C930,753.43,911.43,772,888.522,772H684.478C661.57,772,643,753.43,643,730.522v-57.045
		C643,650.57,661.57,632,684.478,632h204.045C911.43,632,930,650.57,930,673.478V730.522z"/>
	<path fill="#9AB260" d="M928.749,791.295c0-9.592-7.775-17.295-17.365-17.295H659.092c-9.591,0-17.366,7.703-17.366,17.295
		c0,0.141,0.018,0.705,0.021,0.705H642v16h17.092h252.292H929v-16h-0.271C928.73,792,928.749,791.436,928.749,791.295z"/>
	<path fill="#303030" d="M861,748.522C861,771.43,842.43,790,819.523,790h-66.046C730.57,790,712,771.43,712,748.522v-49.045
		C712,676.57,730.57,658,753.477,658h66.046C842.43,658,861,676.57,861,699.478V748.522z"/>
	<path fill="#565656" d="M860,756.522C860,779.43,841.43,798,818.522,798h-66.045C729.57,798,711,779.43,711,756.522v-49.045
		C711,684.57,729.57,666,752.478,666h66.045C841.43,666,860,684.57,860,707.478V756.522z"/>
	<path fill="#C0E872" d="M929.578,856.795c0-9.592-7.775-16.795-17.365-16.795H659.922c-9.591,0-17.366,7.203-17.366,16.795
		c0,0.141,0.018,0.205,0.021,0.205H643v17h16.922h252.291H930v-17h-0.442C929.561,857,929.578,856.936,929.578,856.795z"/>
	<ellipse fill="#707070" cx="785.901" cy="753.299" rx="16.424" ry="16.779"/>
	<path fill="#262626" d="M847.868,866H803V762.445c0-9.07-7.695-16.445-16.766-16.445h-0.333C776.83,746,769,753.375,769,762.445
		V866h-43.075H712v14h0.259c0.221,8,6.247,14,13.667,14h121.943c7.419,0,13.445-6,13.667-14H862v-14H847.868z"/>
	<path fill="#C0E872" d="M928.749,856.795c0-9.592-7.775-16.795-17.365-16.795H659.092c-9.591,0-17.366,7.203-17.366,16.795
		c0,0.141,0.018,0.205,0.021,0.205H642v17h17.092h252.292H929v-17h-0.271C928.73,857,928.749,856.936,928.749,856.795z"/>
	<path fill="#3A3A3A" d="M847.868,874H803V769.911c0-9.07-7.695-16.911-16.766-16.911h-0.333C776.83,753,769,760.841,769,769.911
		V874h-43.075H712v14h0.259c0.221,7,6.247,13,13.667,13h121.943c7.419,0,13.445-6,13.667-13H862v-14H847.868z"/>
	<rect x="755" y="901" fill="#3A3A3A" width="60" height="53"/>
	<rect x="774" y="954" fill="#3A3A3A" width="23" height="53"/>
	<path fill="#282828" d="M897.227,1002H673.25c-17.41,0-31.523,14.289-31.523,31.697c0,14.557,9.87,26.891,23.28,30.515
		c-1.105-3.306-1.712-6.596-1.712-10.273c0-18.326,14.856-32.938,33.182-32.938h179.182c18.326,0,33.182,14.656,33.182,32.982
		c0,3.467-0.533,6.71-1.521,9.853c12.458-4.21,21.431-16.209,21.431-30.087C928.749,1016.339,914.635,1002,897.227,1002z"/>
	<path fill="#3A3A3A" d="M898.056,1007H674.079c-17.41,0-31.523,14.277-31.523,31.687c0,14.556,9.87,26.884,23.28,30.509
		c-1.104-3.307-1.711-6.588-1.711-10.266c0-18.326,14.856-32.93,33.182-32.93h179.182c18.325,0,33.182,14.645,33.182,32.971
		c0,3.468-0.534,6.705-1.521,9.848c12.457-4.21,21.43-16.201,21.43-30.079C929.578,1021.33,915.465,1007,898.056,1007z"/>
	<circle fill="#3A3A3A" cx="657.96" cy="1047.079" r="29.45"/>
	<circle fill="#878787" cx="657.96" cy="1047.079" r="20.325"/>
	<circle fill="#3A3A3A" cx="915.119" cy="1047.079" r="29.449"/>
	<circle fill="#878787" cx="915.119" cy="1047.079" r="20.324"/>
</g>
</svg>
